{
	"asset":{
		"generator":"Khronos glTF Blender I/O v4.0.44",
		"version":"2.0"
	},
	"scene":0,
	"scenes":[
		{
			"name":"Scene",
			"nodes":[
				0
			]
		}
	],
	"nodes":[
		{
			"mesh":0,
			"name":"Suzanne"
		}
	],
	"materials":[
		{
			"doubleSided":true,
			"name":"Material.001",
			"pbrMetallicRoughness":{
				"baseColorFactor":[
					0.8001416921615601,
					0.053801462054252625,
					0,
					1
				],
				"roughnessFactor":0.5
			}
		}
	],
	"meshes":[
		{
			"name":"Suzanne",
			"primitives":[
				{
					"attributes":{
						"POSITION":0,
						"NORMAL":1,
						"TEXCOORD_0":2
					},
					"indices":3,
					"material":0
				}
			]
		}
	],
	"accessors":[
		{
			"bufferView":0,
			"componentType":5126,
			"count":31488,
			"max":[
				1.328185796737671,
				0.9392362236976624,
				0.8224414587020874
			],
			"min":[
				-1.328185796737671,
				-0.971822202205658,
				-0.7782661318778992
			],
			"type":"VEC3"
		},
		{
			"bufferView":1,
			"componentType":5126,
			"count":31488,
			"type":"VEC3"
		},
		{
			"bufferView":2,
			"componentType":5126,
			"count":31488,
			"type":"VEC2"
		},
		{
			"bufferView":3,
			"componentType":5123,
			"count":47232,
			"type":"SCALAR"
		}
	],
	"bufferViews":[
		{
			"buffer":0,
			"byteLength":377856,
			"byteOffset":0,
			"target":34962
		},
		{
			"buffer":0,
			"byteLength":377856,
			"byteOffset":377856,
			"target":34962
		},
		{
			"buffer":0,
			"byteLength":251904,
			"byteOffset":755712,
			"target":34962
		},
		{
			"buffer":0,
			"byteLength":94464,
			"byteOffset":1007616,
			"target":34963
		}
	],
	"buffers":[
		{
			"byteLength":1102080,
			"uri":"monkey.bin"
		}
	]
}
